HIERARCHY
ROOT Hips
{
	OFFSET 0.000000 0.000000 0.000000
	CHANNELS 6 Xposition Yposition Zposition Zrotation Yrotation Xrotation 
	JOINT LowerBack
	{
		OFFSET 0.000000 0.000000 0.000000
		CHANNELS 3 Zrotation Yrotation Xrotation
		JOINT Spine
		{
			OFFSET 0.028270 2.035590 -0.193380
			CHANNELS 3 Zrotation Yrotation Xrotation
			JOINT Spine1
			{
				OFFSET 0.056720 2.048850 -0.042750
				CHANNELS 3 Zrotation Yrotation Xrotation
				JOINT Neck
				{
					OFFSET 0.000000 0.000000 0.000000
					CHANNELS 3 Zrotation Yrotation Xrotation
					JOINT Neck1
					{
						OFFSET -0.054170 1.746240 0.172020
						CHANNELS 3 Zrotation Yrotation Xrotation
						JOINT Head
						{
							OFFSET 0.104070 1.761360 -0.123970
							CHANNELS 3 Zrotation Yrotation Xrotation
							End Site
							{
								OFFSET 0.000000 0.000000 0.000000
							}
						}
					}
				}
				JOINT LeftShoulder
				{
					OFFSET 0.000000 0.000000 0.000000
					CHANNELS 3 Zrotation Yrotation Xrotation
					JOINT LeftArm
					{
						OFFSET 3.362410 1.200890 -0.311210
						CHANNELS 3 Zrotation Yrotation Xrotation
						JOINT LeftForeArm
						{
							OFFSET 4.983000 -0.000000 -0.000000
							CHANNELS 3 Zrotation Yrotation Xrotation
							JOINT LeftHand
							{
								OFFSET 3.483560 -0.000000 -0.000000
								CHANNELS 3 Zrotation Yrotation Xrotation
								JOINT LeftFingerBase
								{
									OFFSET 0.000000 0.000000 0.000000
									CHANNELS 3 Zrotation Yrotation Xrotation
									JOINT LeftHandIndex1
									{
										OFFSET 0.715260 -0.000000 -0.000000
										CHANNELS 3 Zrotation Yrotation Xrotation
										End Site
										{
											OFFSET 0.000000 0.000000 0.000000
										}
									}
								}
								JOINT LThumb
								{
									OFFSET 0.000000 0.000000 0.000000
									CHANNELS 3 Zrotation Yrotation Xrotation
									End Site
									{
										OFFSET 0.000000 0.000000 0.000000
									}
								}
							}
						}
					}
				}
				JOINT RightShoulder
				{
					OFFSET 0.000000 0.000000 0.000000
					CHANNELS 3 Zrotation Yrotation Xrotation
					JOINT RightArm
					{
						OFFSET -3.136600 1.374050 -0.404650
						CHANNELS 3 Zrotation Yrotation Xrotation
						JOINT RightForeArm
						{
							OFFSET -5.241900 -0.000000 -0.000000
							CHANNELS 3 Zrotation Yrotation Xrotation
							JOINT RightHand
							{
								OFFSET -3.444170 -0.000000 -0.000000
								CHANNELS 3 Zrotation Yrotation Xrotation
								JOINT RightFingerBase
								{
									OFFSET 0.000000 0.000000 0.000000
									CHANNELS 3 Zrotation Yrotation Xrotation
									JOINT RightHandIndex1
									{
										OFFSET -0.622530 -0.000000 -0.000000
										CHANNELS 3 Zrotation Yrotation Xrotation
										End Site
										{
											OFFSET 0.000000 0.000000 0.000000
										}
									}
								}
								JOINT RThumb
								{
									OFFSET 0.000000 0.000000 0.000000
									CHANNELS 3 Zrotation Yrotation Xrotation
									End Site
									{
										OFFSET 0.000000 0.000000 0.000000
									}
								}
							}
						}
					}
				}
			}
		}
	}
}
}
MOTION
Frames: 18
Frame Time: 0.008333
2.452157 15.846453 -1.369481 65.960615 -77.829834 -18.823239 -3.516404 -3.097763 4.011781 -1.487031 -2.905782 -2.528248 -5.532899 -2.894041 -1.378737 10.287341 -12.987846 -10.659674 -2.066578 -0.069474 -1.513659 0.000000 0.000000 0.000000 4.149591 5.335966 3.730866 -68.609308 19.018557 9.199545 -0.530705 -77.790733 -0.007564 1.832835 4.568795 0.073220 -0.049643 0.158233 -0.000000 0.000000 0.000000 0.000000 0.000000 0.000000 0.000000 9.214735 -7.905767 0.937338 67.873754 3.372218 17.049669 179.485578 76.370586 179.929807 -9.884864 3.985361 -0.397645 0.233031 -0.520376 0.000000 0.000000 0.000000 0.000000 0.000000 0.000000 0.000000 
2.462907 15.819719 -1.377685 66.004162 -77.616994 -18.664076 -3.557129 -3.127931 4.081961 -1.503085 -2.937880 -2.521230 -5.549155 -2.926421 -1.445426 10.236739 -12.820061 -10.531290 -2.125001 -0.075854 -1.485759 0.000000 0.000000 0.000000 3.976792 4.956235 3.733164 -68.496965 18.586249 9.488872 -0.528717 -77.864567 -0.007028 1.709926 4.476240 0.066916 -0.046526 0.162187 -0.000000 0.000000 0.000000 0.000000 0.000000 0.000000 0.000000 9.430267 -7.806025 0.967610 67.934150 3.603330 17.066720 179.505498 76.756624 179.928257 -10.107401 3.964344 -0.404557 0.236244 -0.518544 0.000000 0.000000 0.000000 0.000000 0.000000 0.000000 0.000000 
2.471572 15.797214 -1.385730 66.163934 -77.422796 -18.661589 -3.621601 -3.143510 4.142455 -1.524136 -2.955023 -2.515320 -5.560132 -2.944068 -1.507393 10.192359 -12.677085 -10.420797 -2.179694 -0.081661 -1.461976 0.000000 0.000000 0.000000 3.849820 4.600218 3.731606 -68.439416 18.149763 9.717848 -0.525839 -77.941870 -0.006552 1.609809 4.336561 0.060915 -0.043718 0.166816 -0.000000 0.000000 0.000000 0.000000 0.000000 0.000000 0.000000 9.642161 -7.718284 1.001045 68.009997 3.817800 17.089157 179.525930 77.167548 179.926736 -10.325861 3.939997 -0.410867 0.239240 -0.516637 0.000000 0.000000 0.000000 0.000000 0.000000 0.000000 0.000000 
2.477883 15.779062 -1.393143 66.441322 -77.260416 -18.805233 -3.703495 -3.142946 4.181914 -1.548592 -2.955825 -2.513560 -5.565012 -2.945780 -1.565430 10.150892 -12.562779 -10.328465 -2.229048 -0.086797 -1.442099 0.000000 0.000000 0.000000 3.767840 4.263357 3.724548 -68.448779 17.742674 9.864985 -0.520681 -78.036785 -0.006259 1.563003 4.160925 0.056617 -0.041503 0.171986 -0.000000 0.000000 0.000000 0.000000 0.000000 0.000000 0.000000 9.839305 -7.645217 1.038451 68.102298 4.018506 17.125075 179.546199 77.600208 179.925311 -10.533084 3.913555 -0.416475 0.241978 -0.514723 0.000000 0.000000 0.000000 0.000000 0.000000 0.000000 0.000000 
2.481575 15.765295 -1.398828 66.758568 -77.142044 -19.017960 -3.776761 -3.128244 4.194357 -1.569709 -2.942601 -2.517412 -5.562106 -2.933948 -1.617910 10.104832 -12.472280 -10.254571 -2.271687 -0.091185 -1.425834 0.000000 0.000000 0.000000 3.722088 3.964334 3.711170 -68.530327 17.376956 9.933606 -0.512623 -78.154772 -0.006284 1.598717 3.965781 0.054923 -0.040279 0.177544 -0.000000 0.000000 0.000000 0.000000 0.000000 0.000000 0.000000 10.004591 -7.582359 1.077122 68.206202 4.204331 17.180534 179.566026 78.047544 179.924055 -10.720111 3.887408 -0.421180 0.244319 -0.512808 0.000000 0.000000 0.000000 0.000000 0.000000 0.000000 0.000000 
2.482379 15.755761 -1.402072 67.081649 -77.076438 -19.258916 -3.825702 -3.101444 4.172607 -1.583493 -2.917579 -2.528764 -5.551191 -2.910865 -1.664394 10.050596 -12.403717 -10.198916 -2.306701 -0.094782 -1.412880 0.000000 0.000000 0.000000 3.703185 3.710234 3.690975 -68.681665 17.072404 9.925823 -0.500845 -78.310494 -0.006714 1.733153 3.767729 0.056233 -0.040247 0.183292 -0.000000 0.000000 0.000000 0.000000 0.000000 0.000000 0.000000 10.127964 -7.528476 1.116003 68.318225 4.377056 17.262138 179.584729 78.501276 179.923043 -10.877815 3.863807 -0.424882 0.246192 -0.510939 0.000000 0.000000 0.000000 0.000000 0.000000 0.000000 0.000000 
2.480412 15.750370 -1.402622 67.410694 -77.068944 -19.527251 -3.846211 -3.065046 4.117946 -1.588782 -2.883150 -2.547133 -5.532677 -2.878803 -1.703928 9.988838 -12.357091 -10.162549 -2.333409 -0.097520 -1.403587 0.000000 0.000000 0.000000 3.706650 3.510291 3.664164 -68.894207 16.837745 9.852912 -0.484960 -78.516792 -0.007588 1.970135 3.579701 0.060246 -0.041480 0.189060 -0.000000 0.000000 0.000000 0.000000 0.000000 0.000000 0.000000 10.205559 -7.484248 1.154187 68.437778 4.544042 17.375942 179.601693 78.952689 179.922332 -10.998547 3.846449 -0.427681 0.247546 -0.509219 0.000000 0.000000 0.000000 0.000000 0.000000 0.000000 0.000000 
2.475713 15.748952 -1.400172 67.727721 -77.121700 -19.806907 -3.830987 -3.022246 4.033735 -1.583749 -2.842530 -2.571592 -5.507411 -2.840846 -1.735580 9.920339 -12.330047 -10.145645 -2.351673 -0.099383 -1.398067 0.000000 0.000000 0.000000 3.724838 3.373864 3.631591 -69.152900 16.675214 9.734208 -0.465058 -78.784269 -0.008899 2.302480 3.413423 0.066663 -0.043960 0.194674 -0.000000 0.000000 0.000000 0.000000 0.000000 0.000000 0.000000 10.235502 -7.448479 1.190369 68.561698 4.708947 17.524552 179.616424 79.391801 179.921974 -11.075557 3.837976 -0.429677 0.248328 -0.507707 0.000000 0.000000 0.000000 0.000000 0.000000 0.000000 0.000000 
2.468346 15.751203 -1.394430 68.001987 -77.233975 -20.066598 -3.770861 -2.976489 3.920765 -1.566355 -2.799382 -2.602150 -5.477334 -2.800596 -1.759650 9.846414 -12.318827 -10.146807 -2.362029 -0.100444 -1.395911 0.000000 0.000000 0.000000 3.744868 3.302210 3.594542 -69.438314 16.591355 9.588223 -0.441381 -79.126627 -0.010594 2.709770 3.276629 0.074882 -0.047505 0.199969 -0.000000 0.000000 0.000000 0.000000 0.000000 0.000000 0.000000 10.218640 -7.418895 1.223637 68.685972 4.868828 17.707301 179.628448 79.806481 179.922002 -11.104558 3.840929 -0.430971 0.248527 -0.506461 0.000000 0.000000 0.000000 0.000000 0.000000 0.000000 0.000000 
2.458412 15.756796 -1.385599 68.237422 -77.402062 -20.310395 -3.668557 -2.930181 3.785969 -1.537582 -2.756116 -2.637060 -5.444602 -2.760302 -1.776428 9.771789 -12.321756 -10.165126 -2.365108 -0.100749 -1.397132 0.000000 0.000000 0.000000 3.761024 3.294646 3.554606 -69.729916 16.582911 9.435890 -0.414601 -79.550375 -0.012551 3.163094 3.172009 0.084103 -0.051824 0.204835 -0.000000 0.000000 0.000000 0.000000 0.000000 0.000000 0.000000 10.161070 -7.394770 1.253541 68.809465 5.023437 17.920860 179.637382 80.183912 179.922415 -11.084232 3.856828 -0.431660 0.248160 -0.505562 0.000000 0.000000 0.000000 0.000000 0.000000 0.000000 0.000000 
2.446512 15.765598 -1.374179 68.449049 -77.620341 -20.563507 -3.532989 -2.885118 3.644251 -1.499907 -2.714319 -2.672372 -5.411206 -2.721267 -1.785584 9.702684 -12.339275 -10.200445 -2.361543 -0.100318 -1.402106 0.000000 0.000000 0.000000 3.775318 3.352272 3.513283 -70.009198 16.632209 9.302377 -0.385802 -80.051010 -0.014634 3.628792 3.098215 0.093826 -0.056568 0.209225 -0.000000 0.000000 0.000000 0.000000 0.000000 0.000000 0.000000 10.071473 -7.377223 1.279532 68.933374 5.176115 18.160490 179.643142 80.514857 179.923185 -11.016847 3.886310 -0.431847 0.247256 -0.505075 0.000000 0.000000 0.000000 0.000000 0.000000 0.000000 0.000000 
2.432731 15.777197 -1.360555 68.637983 -77.880832 -20.825356 -3.368684 -2.842867 3.502272 -1.454917 -2.675601 -2.706416 -5.379396 -2.684995 -1.787983 9.643163 -12.370135 -10.250553 -2.352405 -0.099254 -1.410471 0.000000 0.000000 0.000000 3.784198 3.467238 3.471807 -70.258561 16.729750 9.205438 -0.355890 -80.623983 -0.016682 4.071864 3.050436 0.103249 -0.061341 0.213128 -0.000000 0.000000 0.000000 0.000000 0.000000 0.000000 0.000000 9.958316 -7.366218 1.301522 69.056758 5.320883 18.417636 179.645705 80.791066 179.924264 -10.907431 3.928653 -0.431631 0.245887 -0.505020 0.000000 0.000000 0.000000 0.000000 0.000000 0.000000 0.000000 
2.417535 15.791411 -1.345252 68.816334 -78.173216 -21.112556 -3.185499 -2.804410 3.371453 -1.405388 -2.640755 -2.736219 -5.350909 -2.652096 -1.784139 9.597485 -12.415136 -10.313510 -2.338481 -0.097622 -1.422022 0.000000 0.000000 0.000000 3.790997 3.631682 3.431078 -70.466321 16.856535 9.161930 -0.325838 -81.254980 -0.018544 4.460397 3.022012 0.111775 -0.065749 0.216586 -0.000000 0.000000 0.000000 0.000000 0.000000 0.000000 0.000000 9.829722 -7.363598 1.319327 69.181569 5.456007 18.684041 179.645188 81.005735 179.925579 -10.763502 3.982135 -0.431214 0.244133 -0.505423 0.000000 0.000000 0.000000 0.000000 0.000000 0.000000 0.000000 
2.400999 15.807818 -1.328684 68.981267 -78.485916 -21.415192 -2.990036 -2.771070 3.251270 -1.353345 -2.611172 -2.762053 -5.327892 -2.623978 -1.775614 9.568558 -12.472031 -10.385003 -2.321147 -0.095597 -1.435555 0.000000 0.000000 0.000000 3.794916 3.828836 3.391583 -70.623752 17.006669 9.176159 -0.296214 -81.933026 -0.020079 4.767359 3.004988 0.118499 -0.069422 0.219648 -0.000000 0.000000 0.000000 0.000000 0.000000 0.000000 0.000000 9.694480 -7.368959 1.333178 69.306236 5.571518 18.950113 179.641686 81.154268 179.927052 -10.594717 4.042805 -0.430294 0.242138 -0.506236 0.000000 0.000000 0.000000 0.000000 0.000000 0.000000 0.000000 
2.383432 15.826197 -1.311418 69.154377 -78.805903 -21.753919 -2.794393 -2.743257 3.148460 -1.301950 -2.587011 -2.782061 -5.311183 -2.600704 -1.762726 9.558029 -12.542534 -10.462341 -2.301189 -0.093263 -1.450532 0.000000 0.000000 0.000000 3.802888 4.047152 3.353295 -70.728712 17.161629 9.253954 -0.267623 -82.636559 -0.021196 4.976896 2.989387 0.122923 -0.072108 0.222436 -0.000000 0.000000 0.000000 0.000000 0.000000 0.000000 0.000000 9.559563 -7.385783 1.343118 69.432324 5.665220 19.207859 179.635562 81.237294 179.928593 -10.411949 4.107300 -0.428973 0.240028 -0.507418 0.000000 0.000000 0.000000 0.000000 0.000000 0.000000 0.000000 
2.364963 15.846321 -1.293811 69.346174 -79.121012 -22.132653 -2.607343 -2.721431 3.061263 -1.253511 -2.568661 -2.796794 -5.301700 -2.582703 -1.746562 9.565934 -12.625586 -10.541272 -2.279737 -0.090777 -1.465711 0.000000 0.000000 0.000000 3.818313 4.270183 3.315918 -70.783368 17.313062 9.390170 -0.240344 -83.347861 -0.021844 5.082766 2.965430 0.124344 -0.073649 0.225073 -0.000000 0.000000 0.000000 0.000000 0.000000 0.000000 0.000000 9.430907 -7.415156 1.349386 69.559551 5.730917 19.450247 179.627170 81.257106 179.930123 -10.225857 4.171306 -0.427250 0.237944 -0.508889 0.000000 0.000000 0.000000 0.000000 0.000000 0.000000 0.000000 
2.345786 15.867977 -1.276187 69.582081 -79.423363 -22.574489 -2.437753 -2.704682 2.994880 -1.210230 -2.554928 -2.804637 -5.298959 -2.568714 -1.726313 9.590658 -12.723870 -10.619791 -2.257222 -0.088185 -1.480725 0.000000 0.000000 0.000000 3.849487 4.491575 3.278731 -70.794767 17.440658 9.584043 -0.214792 -84.041058 -0.022034 5.091354 2.924665 0.122665 -0.074058 0.227710 -0.000000 0.000000 0.000000 0.000000 0.000000 0.000000 0.000000 9.311982 -7.461667 1.351876 69.688047 5.771502 19.673708 179.617059 81.221223 179.931553 -10.046320 4.231218 -0.425326 0.236005 -0.510555 0.000000 0.000000 0.000000 0.000000 0.000000 0.000000 0.000000 
2.325907 15.890977 -1.258703 69.874791 -79.706134 -23.084809 -2.290173 -2.692414 2.943931 -1.173208 -2.545208 -2.807098 -5.302850 -2.558243 -1.702609 9.629266 -12.835848 -10.693983 -2.234519 -0.085629 -1.494313 0.000000 0.000000 0.000000 3.898291 4.698512 3.240975 -70.771275 17.541743 9.822346 -0.191022 -84.701503 -0.021835 5.016558 2.860990 0.117882 -0.073436 0.230443 -0.000000 0.000000 0.000000 0.000000 0.000000 0.000000 0.000000 9.204901 -7.525733 1.350785 69.816124 5.784046 19.876175 179.605701 81.136811 179.932839 -9.881809 4.283644 -0.423201 0.234338 -0.512308 0.000000 0.000000 0.000000 0.000000 0.000000 0.000000 0.000000 
